#!OML:ASF I:\Actors\actors\Patient Classification 2\Patient 1\Session 1\actor1.ASF
:FULLY-SPECIFIED
:DEGREES
743
root -0.919922 18.4887 6.90272 -3.66412 -4.75255 -2.21661
lowerback 9.04998 -0.0219024 -1.29409
upperback -2.40307 -0.131821 0.716497
thorax -7.61742 0.0143566 1.50472
lowerneck -16.9351 0.00991301 1.3279
upperneck 17.3922 -0.539737 0.982331
head 8.19057 -0.0659498 0.0456319
rclavicle 2.96313e-014 -1.35174e-014
rhumerus -58.1643 -25.8782 -43.7601
rradius 46.2896
rwrist 14.7323
rhand -16.1131 -44.248
rfingers 7.12502
rthumb 10.0911 -73.986
lclavicle 2.96313e-014 -1.35174e-014
lhumerus -48.4744 27.1363 60.3803
lradius 51.6709
lwrist 2.19503
lhand -13.6297 -14.6591
lfingers 7.12502
lthumb 12.4861 14.9479
rfemur 16.2115 5.19789 17.494
rtibia 1.43125e-014
rfoot -20.631 -11.2701
rtoes -4.37958
lfemur 5.06262 -4.31265 -12.5556
ltibia 21.8192
lfoot -23.9655 12.7051
ltoes -56.2399
744
root -0.914488 18.4801 6.90551 -3.89261 -4.48701 -2.18379
lowerback 8.79445 0.0687384 -1.36138
upperback -2.37488 -0.0197267 0.658724
thorax -7.44391 0.0689897 1.46311
lowerneck -16.8483 -0.19922 1.06474
upperneck 17.6235 -0.804805 1.19192
head 8.25442 -0.185734 0.127587
rclavicle 1.48592e-014 8.94531e-015
rhumerus -58.8523 -26.4014 -45.0437
rradius 45.6959
rwrist 15.1394
rhand -14.2896 -44.5395
rfingers 7.12502
rthumb 11.8498 -74.1842
lclavicle 1.48592e-014 8.94531e-015
lhumerus -49.1336 26.9843 62.1132
lradius 50.9543
lwrist 2.32245
lhand -13.8614 -13.7137
lfingers 7.12502
lthumb 12.2628 15.9068
rfemur 16.5134 4.95181 17.4288
rtibia -4.77083e-014
rfoot -20.7098 -11.1766
rtoes -4.237
lfemur 5.22196 -4.38762 -12.5877
ltibia 21.8912
lfoot -23.9604 12.4306
ltoes -56.1849
745
root -0.90427 18.4698 6.91633 -4.16665 -4.397 -2.1462
lowerback 8.46346 0.207998 -1.36132
upperback -2.2908 0.166091 0.592309
thorax -7.16979 0.155372 1.36449
lowerneck -16.8082 -0.394018 0.809361
upperneck 17.8688 -1.0576 1.41642
head 8.33283 -0.297285 0.214771
rclavicle 7.77745e-015 -1.25234e-014
rhumerus -59.2833 -26.583 -46.7613
rradius 45.0743
rwrist 14.6084
rhand -13.2921 -44.7356
rfingers 7.12502
rthumb 12.8116 -74.3225
lclavicle 7.77745e-015 -1.25234e-014
lhumerus -49.7601 26.9417 63.6787
lradius 50.0341
lwrist 2.4368
lhand -13.7459 -13.6322
lfingers 7.12502
lthumb 12.3741 15.9816
rfemur 16.8568 4.88817 17.351
rtibia -6.36111e-015
rfoot -20.7629 -11.0907
rtoes -4.23404
lfemur 5.51394 -4.51146 -12.7098
ltibia 21.9566
lfoot -24.1005 12.359
ltoes -56.1423
746
root -0.893602 18.4604 6.92973 -4.43965 -4.34991 -2.11822
lowerback 8.12351 0.339884 -1.36338
upperback -2.23938 0.342911 0.53785
thorax -6.92519 0.238579 1.28328
lowerneck -16.7024 -0.52145 0.675651
upperneck 18.1522 -1.22118 1.50403
head 8.41156 -0.372599 0.246854
rclavicle 6.36111e-015 3.18055e-015
rhumerus -59.6091 -26.5583 -48.67
rradius 44.4038
rwrist 13.3775
rhand -12.9994 -44.8581
rfingers 7.12502
rthumb 13.0938 -74.4271
lclavicle 6.36111e-015 3.18055e-015
lhumerus -50.3916 26.8328 65.1639
lradius 49.0944
lwrist 2.84843
lhand -13.3798 -13.4896
lfingers 7.12502
lthumb 12.7271 16.1025
rfemur 17.1949 4.86701 17.2874
rtibia 7.95139e-015
rfoot -20.7826 -11.0629
rtoes -4.61179
lfemur 5.83653 -4.74456 -12.8716
ltibia 22.0136
lfoot -24.3277 12.4311
ltoes -56.0974
747
root -0.891647 18.4568 6.92712 -4.57177 -4.01837 -2.09536
lowerback 7.93164 0.370467 -1.50345
upperback -2.32732 0.369609 0.514732
thorax -6.91032 0.257584 1.33456
lowerneck -16.4616 -0.619064 0.546218
upperneck 18.4389 -1.33618 1.5552
head 8.46707 -0.429319 0.272208
rclavicle -1.39895e-014 1.19271e-015
rhumerus -59.913 -26.6248 -50.4403
rradius 43.5867
rwrist 12.1728
rhand -12.721 -44.8813
rfingers 7.12502
rthumb 13.3621 -74.4328
lclavicle -1.39895e-014 1.19271e-015
lhumerus -50.9864 26.6977 66.5703
lradius 48.0485
lwrist 3.43774
lhand -13.2219 -13.3024
lfingers 7.12502
lthumb 12.8793 16.2802
rfemur 17.3878 4.54683 17.2394
rtibia -3.65764e-014
rfoot -20.8028 -11.0753
rtoes -5.07533
lfemur 5.86599 -4.76703 -12.8409
ltibia 22.0581
lfoot -24.1832 12.1582
ltoes -56.1832
748
root -0.896661 18.4568 6.91104 -4.6044 -3.46131 -2.08631
lowerback 7.85475 0.323724 -1.74175
upperback -2.47912 0.282792 0.521142
thorax -7.02635 0.227619 1.4876
lowerneck -16.2343 -0.747432 0.31442
upperneck 18.7848 -1.49261 1.71093
head 8.54728 -0.501427 0.344858
rclavicle -9.83984e-015 1.31198e-014
rhumerus -60.2109 -26.9696 -51.9827
rradius 42.7581
rwrist 10.9688
rhand -12.4559 -44.4835
rfingers 7.12502
rthumb 13.6177 -74.0181
lclavicle -9.83984e-015 1.31198e-014
lhumerus -51.5479 28.1332 66.9587
lradius 45.4824
lwrist 2.45453
lhand -13.3236 -14.3123
lfingers 7.12502
lthumb 12.7813 15.2765
rfemur 17.4841 3.98943 17.2114
rtibia 6.20208e-014
rfoot -20.8556 -11.0592
rtoes -5.18359
lfemur 5.67955 -4.53649 -12.6193
ltibia 22.0738
lfoot -23.7341 11.49
ltoes -56.3612
749
root -0.893039 18.452 6.90935 -4.7889 -3.15856 -2.04822
lowerback 7.69091 0.32926 -1.87659
upperback -2.53156 0.277755 0.507521
thorax -6.98859 0.230785 1.55009
lowerneck -16.1309 -0.850544 -0.0177306
upperneck 19.2731 -1.63565 2.05264
head 8.70165 -0.552845 0.498682
rclavicle -1.54555e-014 1.98785e-015
rhumerus -60.4834 -27.456 -53.457
rradius 42.1335
rwrist 9.64598
rhand -12.0695 -44.277
rfingers 7.12502
rthumb 13.99 -73.7862
lclavicle -1.54555e-014 1.98785e-015
lhumerus -52.1875 28.6846 67.7447
lradius 44.0753
lwrist 2.4305
lhand -13.4598 -14.4067
lfingers 7.12502
lthumb 12.65 15.1902
rfemur 17.7413 3.70358 17.1435
rtibia 5.56597e-014
rfoot -20.9009 -11.0158
rtoes -5.11171
lfemur 5.7982 -4.50791 -12.6037
ltibia 22.0805
lfoot -23.6332 11.1237
ltoes -56.3639
750
root -0.869524 18.4374 6.94444 -5.30342 -3.57728 -1.96932
lowerback 7.25408 0.546671 -1.7044
upperback -2.37916 0.59024 0.438553
thorax -6.58543 0.370371 1.34109
lowerneck -15.9941 -0.922132 -0.212348
upperneck 19.741 -1.73151 2.21217
head 8.84097 -0.592031 0.574523
rclavicle -2.73329e-015 1.51076e-014
rhumerus -60.6306 -27.7292 -55.1794
rradius 41.6943
rwrist 7.93334
rhand -11.7248 -44.9172
rfingers 7.12502
rthumb 14.3222 -74.4032
lclavicle -2.73329e-015 1.51076e-014
lhumerus -52.7787 28.2298 69.0377
lradius 43.5419
lwrist 3.19879
lhand -13.1605 -14.256
lfingers 7.12502
lthumb 12.9385 15.3229
rfemur 18.3235 4.17599 17.0303
rtibia -4.13472e-014
rfoot -20.9391 -10.9882
rtoes -5.3275
lfemur 6.63129 -4.95445 -13.075
ltibia 22.066
lfoot -24.2763 11.7265
ltoes -56.0834
751
root -0.864219 18.4341 6.94504 -5.4018 -3.35712 -1.91931
lowerback 7.02859 0.577195 -1.79554
upperback -2.46692 0.624613 0.4211
thorax -6.55121 0.391056 1.37084
lowerneck -15.7986 -1.00887 -0.261745
upperneck 20.0989 -1.8248 2.11233
head 8.92847 -0.648773 0.538583
rclavicle -3.57812e-015 4.37326e-015
rhumerus -60.5749 -27.6861 -57.1885
rradius 41.3121
rwrist 6.22904
rhand -11.4485 -45.8197
rfingers 7.12502
rthumb 14.5884 -75.2867
lclavicle -3.57812e-015 4.37326e-015
lhumerus -53.2446 27.2459 70.5814
lradius 43.2844
lwrist 4.08055
lhand -12.4734 -14.1682
lfingers 7.12502
lthumb 13.6007 15.3675
rfemur 18.4737 3.97522 16.9297
rtibia -4.13472e-014
rfoot -21.0235 -10.9144
rtoes -5.15498
lfemur 6.69779 -4.95818 -13.1166
ltibia 22.0345
lfoot -24.2168 11.5552
ltoes -56.1356
752
root -0.856688 18.4291 6.9475 -5.52902 -3.16622 -1.90464
lowerback 6.79056 0.603372 -1.79586
upperback -2.50898 0.662903 0.407664
thorax -6.46034 0.409174 1.35369
lowerneck -15.6495 -1.08925 -0.39076
upperneck 20.3715 -1.91651 2.1414
head 8.99755 -0.697352 0.559647
rclavicle 1.4561e-014 -7.95139e-015
rhumerus -60.341 -27.4437 -59.3423
rradius 40.93
rwrist 5.12158
rhand -10.9882 -46.3813
rfingers 7.12502
rthumb 15.0319 -75.8156
lclavicle 1.4561e-014 -7.95139e-015
lhumerus -53.5245 26.5229 71.9575
lradius 42.6409
lwrist 4.63143
lhand -11.7917 -13.8509
lfingers 7.12502
lthumb 14.2578 15.6397
rfemur 18.6493 3.80243 16.8678
rtibia -1.90833e-014
rfoot -21.084 -10.872
rtoes -5.1565
lfemur 6.81544 -5.00277 -13.1518
ltibia 21.998
lfoot -24.1557 11.4695
ltoes -56.2616
753
root -0.847725 18.423 6.95067 -5.70669 -2.97129 -1.82762
lowerback 6.56583 0.604308 -1.84029
upperback -2.49535 0.662781 0.381544
thorax -6.3172 0.409015 1.3531
lowerneck -15.5059 -1.11195 -0.481907
upperneck 20.5564 -1.93276 2.15755
head 9.03605 -0.7098 0.579218
rclavicle 6.95746e-016 3.18055e-015
rhumerus -59.9641 -27.0034 -61.635
rradius 40.6661
rwrist 4.35314
rhand -10.4371 -46.671
rfingers 7.12502
rthumb 15.5627 -76.0649
lclavicle 6.95746e-016 3.18055e-015
lhumerus -53.6 26.0229 73.2859
lradius 41.8146
lwrist 5.25055
lhand -11.4921 -12.8778
lfingers 7.12502
lthumb 14.5464 16.5921
rfemur 18.8807 3.63729 16.735
rtibia -4.77083e-015
rfoot -21.1023 -10.8447
rtoes -5.23946
lfemur 6.98353 -5.09192 -13.279
ltibia 21.9901
lfoot -24.1679 11.3497
ltoes -56.2346
754
root -0.839229 18.4174 6.95201 -5.91327 -2.79048 -1.76494
lowerback 6.35967 0.594788 -1.89912
upperback -2.4502 0.648911 0.378332
thorax -6.15153 0.402641 1.38616
lowerneck -15.3846 -1.10951 -0.524335
upperneck 20.742 -1.89965 2.05851
head 9.07639 -0.707867 0.557329
rclavicle 4.72114e-015 6.36111e-015
rhumerus -59.4375 -26.1987 -64.1626
rradius 40.5946
rwrist 3.54487
rhand -9.94109 -46.8968
rfingers 7.12502
rthumb 16.0404 -76.2528
lclavicle 4.72114e-015 6.36111e-015
lhumerus -53.5706 25.3969 74.6656
lradius 41.0639
lwrist 5.77463
lhand -11.187 -11.9141
lfingers 7.12502
lthumb 14.8403 17.5345
rfemur 19.135 3.48822 16.6156
rtibia 4.77083e-014
rfoot -21.1317 -10.7936
rtoes -5.09016
lfemur 7.18268 -5.22698 -13.4049
ltibia 21.9865
lfoot -24.2044 11.2189
ltoes -56.0901
